<svg xmlns="http://www.w3.org/2000/svg" xmlns:xlink="http://www.w3.org/1999/xlink" viewBox="0 0 227.14 228.56"><defs><style>.cls-1,.cls-4{fill:none;}.cls-2{clip-path:url(#clip-path);}.cls-3{fill:url(#名称未設定グラデーション_5);}.cls-4,.cls-5,.cls-6{stroke:#fff;stroke-miterlimit:10;stroke-width:7px;}.cls-5,.cls-7{fill:#fff;}.cls-6{fill:#0f513b;}</style><clipPath id="clip-path"><rect class="cls-1" x="-4728.81" y="17.51" width="453.34" height="487.06"/></clipPath><linearGradient id="名称未設定グラデーション_5" x1="184.34" y1="188.58" x2="43.35" y2="42.84" gradientUnits="userSpaceOnUse"><stop offset="0.15" stop-color="#3e624b"/><stop offset="0.16" stop-color="#3e634b"/><stop offset="0.49" stop-color="#4c7e3f"/><stop offset="0.78" stop-color="#548e38"/><stop offset="1" stop-color="#579435"/></linearGradient></defs><g id="トンボ"><g class="cls-2"><image width="2300" height="712" transform="translate(-5019.49 -247.28) scale(4.56 4.4)" xlink:href="IMG_2556.JPG"/></g><circle class="cls-3" cx="113.52" cy="115.37" r="109.57"/><ellipse class="cls-4" cx="112.8" cy="115.54" rx="78.04" ry="109.41"/><line class="cls-4" x1="112.8" y1="224.94" x2="112.8" y2="6.13"/><line class="cls-4" x1="3.26" y1="116.11" x2="227.14" y2="116.11"/><line class="cls-4" x1="8.49" y1="58.67" x2="214.42" y2="58.67"/><line class="cls-4" x1="7.51" y1="184.1" x2="204.87" y2="184.1"/><rect class="cls-5" x="47.51" y="60.23" width="135.38" height="120.04" rx="22.3"/><path class="cls-6" d="M55.07,65.64h72.22a56.12,56.12,0,0,1,56.12,56.12v0a56.12,56.12,0,0,1-56.12,56.12H55.07a0,0,0,0,1,0,0V65.64A0,0,0,0,1,55.07,65.64Z"/><ellipse class="cls-7" cx="174.02" cy="64.3" rx="7.11" ry="5.63"/><ellipse class="cls-7" cx="186.28" cy="112.98" rx="3.39" ry="21.49"/><rect class="cls-5" x="47.51" y="60.23" width="7.56" height="103.74"/><rect class="cls-5" x="44.84" y="72.59" width="0.33" height="83.71"/><rect class="cls-5" x="39.51" y="85.93" width="1" height="60.36"/></g></svg>