<svg xmlns="http://www.w3.org/2000/svg" xmlns:xlink="http://www.w3.org/1999/xlink" viewBox="0 0 512.28 92.28"><defs><style>.cls-1,.cls-3{fill:none;}.cls-2{clip-path:url(#clip-path);}.cls-3{stroke:#0f513b;stroke-miterlimit:10;}</style><clipPath id="clip-path"><rect class="cls-1" x="-5083.05" y="38.42" width="453.34" height="487.06"/></clipPath></defs><g id="トンボ"><g class="cls-2"><image width="2300" height="712" transform="translate(-5373.73 -226.36) scale(4.56 4.4)" xlink:href="IMG_2556.JPG"/></g><rect class="cls-3" x="10.53" y="57.7" width="34.58" height="34.58"/><polygon class="cls-3" points="27.82 33.82 52.97 57.53 2.67 57.53 27.82 33.82"/><rect class="cls-3" x="25" y="67.68" width="15.84" height="23.79" rx="5.76"/><rect class="cls-3" x="61.64" y="1.56" width="44.64" height="90.72" rx="2.88"/><rect class="cls-3" x="61.64" y="7.8" width="44.64"/><rect class="cls-3" x="65.96" y="14.04" width="14.4" height="11.04"/><rect class="cls-3" x="87.56" y="14.04" width="14.4" height="11.04"/><rect class="cls-3" x="65.96" y="28.94" width="14.4" height="11.04"/><rect class="cls-3" x="87.56" y="28.94" width="14.4" height="11.04"/><rect class="cls-3" x="74.12" y="61.12" width="19.68" height="30.39"/><line class="cls-3" x1="83.96" y1="91.47" x2="83.96" y2="61.12"/><polyline class="cls-3" points="130.32 70.75 130.32 92.28 125.76 92.28 125.76 72.17"/><path class="cls-3" d="M136.51,55A8.76,8.76,0,0,1,134,72.1a8.5,8.5,0,0,1-4.08-1"/><path class="cls-3" d="M130.32,71.13l-.25-.14"/><path class="cls-3" d="M115.42,64.38a6.8,6.8,0,0,1,2.34-2.09"/><path class="cls-3" d="M114.48,66.42a6.66,6.66,0,0,1,.94-2"/><path class="cls-3" d="M114.24,68.46V68.2a6.54,6.54,0,0,1,.24-1.78"/><path class="cls-3" d="M114.35,69.4a7.31,7.31,0,0,1-.11-.94"/><path class="cls-3" d="M125.47,73a6.53,6.53,0,0,1-4.63,1.92,6.62,6.62,0,0,1-6.49-5.48"/><path class="cls-3" d="M126,72.43a6,6,0,0,1-.48.53"/><path class="cls-3" d="M118.27,48.23a7,7,0,0,1,1.1-.54"/><path class="cls-3" d="M115.42,51a8.13,8.13,0,0,1,2.85-2.8"/><path class="cls-3" d="M118.14,62.26A8.21,8.21,0,0,1,115.42,51"/><path class="cls-3" d="M133.92,41.25a5.63,5.63,0,0,1,.71,0,6.88,6.88,0,0,1,6.73,7A7,7,0,0,1,136.59,55"/><path class="cls-3" d="M134.37,41.19c-.33-6.86-3.8-12.25-8-12.25-4.45,0-8.06,6-8.06,13.32a20.8,20.8,0,0,0,.7,5.43"/><polyline class="cls-3" points="159.22 81.99 159.22 92.28 156.94 92.28 156.94 82.22"/><path class="cls-3" d="M156.94,82.88c-4.76-.86-8.46-7.32-8.46-15.15,0-8.42,4.27-15.25,9.54-15.25s9.54,6.83,9.54,15.25c0,7.78-3.65,14.2-8.36,15.13"/><rect class="cls-3" x="176.18" y="63.31" width="28.13" height="28.13"/><rect class="cls-3" x="204.41" y="28.94" width="41.71" height="62.53"/><rect class="cls-3" x="210.36" y="33.93" width="12.1" height="12.1"/><rect class="cls-3" x="229.27" y="33.93" width="12.1" height="12.1"/><rect class="cls-3" x="210.36" y="52.15" width="12.1" height="12.1"/><rect class="cls-3" x="229.27" y="52.15" width="12.1" height="12.1"/><rect class="cls-3" x="183.04" y="70.73" width="14.4" height="20.76" rx="2.08"/><polyline class="cls-3" points="285.6 73.8 285.6 92.28 256.85 92.28 256.85 73.8 257.3 73.8"/><line class="cls-3" x1="271.25" y1="58.73" x2="271.53" y2="58.45"/><line class="cls-3" x1="271.19" y1="58.79" x2="271.25" y2="58.73"/><polyline class="cls-3" points="272.84 57.14 272.89 57.09 271.08 55.28 250.21 76.15 252.02 77.96 271.19 58.79"/><line class="cls-3" x1="272.79" y1="57.19" x2="272.84" y2="57.14"/><polyline class="cls-3" points="269.38 56.98 271.08 55.28 291.55 75.74 289.85 77.44 271.19 58.79"/><rect class="cls-3" x="296.92" y="35.64" width="123.12" height="55.81"/><rect class="cls-3" x="341.92" y="7.8" width="33.12" height="27.84"/><rect class="cls-3" x="303.04" y="43.56" width="15.17" height="7.3"/><rect class="cls-3" x="326.75" y="43.56" width="15.17" height="7.3"/><rect class="cls-3" x="303.04" y="54.55" width="15.17" height="7.3"/><rect class="cls-3" x="326.75" y="54.55" width="15.17" height="7.3"/><line class="cls-3" x1="358.48" y1="21.72" x2="358.48" y2="12.6"/><line class="cls-3" x1="369.4" y1="27.98" x2="358.48" y2="21.72"/><rect class="cls-3" x="375.04" y="43.56" width="15.17" height="7.3"/><rect class="cls-3" x="398.75" y="43.56" width="15.17" height="7.3"/><rect class="cls-3" x="375.04" y="54.55" width="15.17" height="7.3"/><rect class="cls-3" x="398.75" y="54.55" width="15.17" height="7.3"/><polyline class="cls-3" points="502.84 82.3 502.84 92.59 500.56 92.59 500.56 82.54"/><path class="cls-3" d="M500.56,83.19c-4.76-.86-8.46-7.31-8.46-15.15,0-8.42,4.27-15.24,9.54-15.24s9.54,6.82,9.54,15.24c0,7.79-3.65,14.21-8.36,15.13"/><rect class="cls-3" x="433.56" y="35.64" width="46.8" height="55.85"/><rect class="cls-3" x="437.63" y="45.98" width="15.17" height="7.3"/><rect class="cls-3" x="461.34" y="45.98" width="15.17" height="7.3"/><rect class="cls-3" x="461.34" y="69.4" width="15.17" height="22.05" rx="2.2"/></g></svg>